<svg version="1.2" xmlns="http://www.w3.org/2000/svg" viewBox="0 0 120 34" width="120" height="34">
	<title>CIMB-Logo</title>
	<style>
		.s0 { fill: #790008 } 
		.s1 { fill: #ffffff } 
		.s2 { fill: #ed3024 } 
	</style>
	<path class="s0" d="m0 0.2h33.6q0 16.8 0 33.6-16.8 0-33.6 0zm4.5 6.4c2.6 3.5 5.2 6.9 7.9 10.4-2.6 3.5-5.3 7-7.9 10.5 5.9 0 11.9 0 17.8 0 2.7-3.4 5.3-7 8-10.5q-4-5.2-7.9-10.4-9 0-17.9 0z"/>
	<path class="s0" d="m44.9 10c2-2.5 5.1-4.1 8.3-4.2 3-0.3 6.1 0.8 8.4 2.8q-1.6 1.5-3.1 3.1c-1.8-1.4-4.2-2-6.4-1.4-2.4 0.7-4.4 2.7-4.9 5.2-0.7 2.7 0.3 5.7 2.5 7.4 2.5 2 6.3 1.9 8.8-0.2 1 1.1 2.1 2.1 3.1 3.1-2.1 1.8-4.7 2.9-7.4 2.9-3.4 0.1-6.8-1.4-9-4-1.5-1.7-2.5-4-2.8-6.3-0.3-3 0.6-6.1 2.5-8.4z"/>
	<path class="s0" d="m65.6 6.4q2.2 0 4.4 0 0.1 10.8 0.1 21.7-2.3 0-4.5 0 0-10.9 0-21.7z"/>
	<path class="s0" d="m75.3 6.3q2.2 0 4.3 0c2.6 4.6 5.1 9.3 7.7 13.8 2.5-4.6 5-9.2 7.5-13.8q2.2 0 4.3 0c0 7.3 0.1 14.5 0 21.8-1.4-0.1-2.9 0-4.4-0.1q0-6.4 0-12.8c-2.5 4.3-4.9 8.7-7.5 13-2.5-4.3-5-8.7-7.5-13q0 6.4 0 12.8-2.2 0-4.4 0 0-10.8 0-21.7z"/>
	<path class="s0" d="m104.2 6.4q4.4 0 8.9 0c1.4 0 2.8 0.3 4 1 2.8 1.8 3.5 6.3 1.1 8.7-0.3 0.3-0.7 0.6-1 0.9 1.3 0.7 2.4 2 2.6 3.5 0.4 2.1-0.1 4.4-1.7 5.9-1.2 1.2-3.1 1.7-4.8 1.7-3 0-6.1 0-9.1 0q0-10.9 0-21.7zm4.4 3.9q0 2.4 0 4.8 1.9 0 3.9 0c0.7-0.1 1.6-0.2 2.1-0.8 0.8-0.8 0.8-2.2 0.1-3.1-0.5-0.7-1.4-0.9-2.2-0.9q-2 0-3.9 0zm0 8.7q0 2.6 0 5.1 2.1 0 4.3 0c0.7 0 1.4-0.2 1.9-0.7 1-0.9 1-2.7 0-3.7-0.6-0.5-1.4-0.7-2.1-0.7q-2.1 0-4.1 0z"/>
	<path class="s1" d="m4.5 6.5q8.9 0 17.9 0 3.9 5.3 7.9 10.5-9 0-17.9 0c-2.7-3.5-5.3-7-7.9-10.5z"/>
	<path class="s2" d="m12.4 17q8.9 0 17.9 0c-2.7 3.5-5.3 7-8 10.5-5.9 0-11.9 0-17.8 0 2.6-3.5 5.3-7 7.9-10.5z"/>
</svg>