<svg version="1.1" id="Layer_1" xmlns="http://www.w3.org/2000/svg" xmlns:xlink="http://www.w3.org/1999/xlink" x="0px" y="0px" viewBox="0 0 73 82.7" style="enable-background:new 0 0 73 82.7;" xml:space="preserve">
 <style type="text/css">
  .st0{filter:url(#Adobe_OpacityMaskFilter);}
	.st1{fill-rule:evenodd;clip-rule:evenodd;fill:#FFFFFF;}
	.st2{mask:url(#mask-2_00000021078420953417533030000012842830478897591440_);fill-rule:evenodd;clip-rule:evenodd;fill:#FEA30B;}
 </style>
 <desc>
  Created with Sketch.
 </desc>
 <g id="QuickLoan">
  <g id="Quick-Loan" transform="translate(-120.000000, -18.000000)">
   <g id="Group-3">
    <g id="Group" transform="translate(120.000000, 18.000000)">
     <g id="Group-15">
      <g id="Clip-6">
      </g>
      <defs>
       <filter id="Adobe_OpacityMaskFilter" filterUnits="userSpaceOnUse" x="0" y="0" width="73" height="82.7">
        <feColorMatrix type="matrix" values="1 0 0 0 0  0 1 0 0 0  0 0 1 0 0  0 0 0 1 0">
        </feColorMatrix>
       </filter>
      </defs>
      <mask maskUnits="userSpaceOnUse" x="0" y="0" width="73" height="82.7" id="mask-2_00000021078420953417533030000012842830478897591440_">
       <g class="st0">
        <polygon id="path-1_00000008837658049437484990000017032289434786171799_" class="st1" points="0,82.7 338.6,82.7 338.6,0 
								0,0 							">
        </polygon>
       </g>
      </mask>
      <path id="Fill-14" class="st2" d="M52.5,43.6c-3.4-0.5-4.9-0.6-4.9-0.6V30.5c0.8,0.2,6.4,1.6,6.4,1.6c3.4,0.7,5.1,3.2,5.1,6.2
						C59.1,41.4,56.5,44.1,52.5,43.6 M66.2,48.7c0,0,3.9-4,3.9-11.5c0-6.3-4.1-13.2-11.5-15.9l-24-8.7l-0.1,42.5c0,0,0,6.2-6.7,7.5
						c-4.5,0.9-8.9-3.3-8.9-8.5c0,0,0-33.5,0-47.2L0,0v56c0,20,17.8,28.4,28.7,26.5c13-2.3,18.9-12.6,18.9-23.7v-3.9l9.2,0.3
						c3,0,5.3,2.7,5.3,5.5c0,2.5-1.7,5.2-5.3,5.5l-5.1,0.4c-0.8,3.4-2.6,8.1-6.5,12.8l14.8-2.7c6-1.1,12.9-6.4,12.9-15.1
						C73,57.9,71.8,52.4,66.2,48.7">
      </path>
     </g>
    </g>
   </g>
  </g>
 </g>
</svg>