
<svg xmlns="http://www.w3.org/2000/svg" version="1.1" xmlns:xlink="http://www.w3.org/1999/xlink" preserveAspectRatio="none" x="0px" y="0px" width="990px" height="1000px" viewBox="0 0 990 1000">
<defs>
<g id="Layer0_0_FILL">
<path fill="#000000" stroke="none" d="
M 434.4 219.15
Q 439.4373046875 253.341796875 462.95 258.5 486.5025390625 263.713671875 505.3 238.1 488.9076171875 244.35078125 489.2 232.2 489.500390625 220.1103515625 484.7 210.25
L 494.3 147.05 411 147.05 434.4 219.15 Z"/>
</g>

<g id="Layer0_1_FILL">
<path fill="#000000" stroke="none" d="
M 967.75 214.95
L 952.15 200.45 934.35 229.1 870.2 271.4 846.05 382.2 871.65 446.1 910.05 446.1 948.35 285.85 1009.4 261 967.75 214.95 Z"/>
</g>

<g id="Layer0_2_FILL">
<path fill="#000000" stroke="none" d="
M 759.45 338.2
L 795.25 390.4 835.5 342.8 844.6 292.8 793.95 328.5 764.15 283.55 759.45 338.2 Z"/>
</g>

<g id="Layer0_3_FILL">
<path fill="#000000" stroke="none" d="
M 519.55 143.35
Q 547.95 105.95 498.3 85.4 497.55 113.5 484.3 127.95 421 85.95 400.8 154.25
L 379.25 171.25
Q 474.25 202.95 519.55 143.35 Z"/>
</g>

<g id="Layer0_4_FILL">
<path fill="#000000" stroke="none" d="
M 1045.4 341.85
Q 1044.75703125 333.103515625 1041.55 334.65 1036.425 347.25 1032.2 352.25
L 1014.3 371.85
Q 998.775 366.35 983.25 368.45 981.675 356.975 973.2 347 966.475 339.125 964.5 332.05 962.2 323.725 958.9 327.1 940.2 345.575 958.5 387.7
L 933.6 467.35 984.7 512.1 1024.7 565.8 1059.15 541.7 1034.15 386.6
Q 1047.358984375 368.5326171875 1045.4 341.85 Z"/>
</g>

<g id="Layer0_5_FILL">
<path fill="#000000" stroke="none" d="
M 748.25 73.75
L 746.3 60.85
Q 745.3001953125 59.2349609375 744.65 60.7
L 742.25 76.45 716.5 583.75
Q 731.41328125 594.67578125 754.4 583.65
L 748.25 73.75 Z"/>
</g>

<g id="Layer0_6_FILL">
<path fill="#000000" stroke="none" d="
M 479.05 250.05
L 476.1 267.25
Q 503.25 276.25 510.15 263.9 517.05 251.5 503.25 238.75 509.15 259.45 479.05 250.05 Z"/>
</g>

<g id="Layer0_7_FILL">
<path fill="#000000" stroke="none" d="
M 476.3 199.7
L 473.5 210
Q 500.4875 225.8798828125 507.4 213.5 514.3111328125 201.16484375 500.5 188.4 506.38203125 209.10546875 476.3 199.7 Z"/>
</g>

<g id="Layer0_8_FILL">
<path fill="#000000" stroke="none" d="
M 410 102.8
Q 376.149609375 127.79375 379.25 171.25
L 457.95 158.7
Q 429.6296875 146.376953125 439.1 92.1 420.3296875 95.079296875 410 102.8 Z"/>
</g>

<g id="Layer0_9_FILL">
<path fill="#000000" stroke="none" d="
M 455.3 175.05
L 460.55 175.05
Q 460.3 116.35 500.9 105.05 486.0322265625 94.0828125 468.55 101.55 466.846484375 101.55546875 471.6 83 454.2640625 91.88203125 444.55 108.3 434.8318359375 124.7734375 455.3 175.05 Z"/>
</g>

<g id="Layer0_10_MEMBER_0_FILL">
<path fill="#D18029" stroke="none" d="
M 681.9 156.7
L 693.2 126.9
Q 605.0763671875 74.1 495.05 74.1 332.95 74.1 218.3 188.7 209.6267578125 197.3734375 201.6 206.3 103.7 315.568359375 103.7 465.4 103.7 496.528125 107.9 525.9
L 139.3 541.75 119.85 580.4
Q 127.8958984375 607.4025390625 139.95 632.75 168.1548828125 691.9767578125 218.3 742.1 260.968359375 784.7498046875 310.2 811.5 393.27734375 856.7 495.05 856.7 643.763671875 856.7 752.5 760.25 762.286328125 751.563671875 771.75 742.1 821.825390625 692.068359375 850 632.95 886.4 556.728125 886.4 465.4 886.4 422.1640625 878.25 382.3 855.8201171875 272.7333984375 771.75 188.7 749.0904296875 166.0404296875 724.55 147.85
L 692.65 163.8
Q 720.9458984375 183.1458984375 746.6 208.8 759.65 221.85 771.1 235.6 819.15 293.4 838.25 363.2 850.85 409.2 850.85 460.45 850.85 473.5 850.05 486.25 844 579.8 793.75 655 790.75 659.45 787.65 663.8 769.7 689 746.6 712.05 735.904296875 722.75078125 724.75 732.35
L 224.35 229.2
Q 233.2611328125 218.9578125 243.1 209.1 243.2 208.95 243.35 208.8 271.15 181 302.05 160.65 386.9 104.6 495 104.6 599.2689453125 104.6 681.9 156.7 Z"/>

<path fill="#E79034" stroke="none" d="
M 676.1 172.1
L 681.9 156.7
Q 599.2689453125 104.6 495 104.6 386.9 104.6 302.05 160.65 271.15 181 243.35 208.8 243.2 208.95 243.1 209.1 233.2611328125 218.9578125 224.35 229.2
L 724.75 732.35
Q 735.904296875 722.75078125 746.6 712.05 769.7 689 787.65 663.8 790.75 659.45 793.75 655 844 579.8 850.05 486.25 850.85 473.5 850.85 460.45 850.85 409.2 838.25 363.2 819.15 293.4 771.1 235.6 759.65 221.85 746.6 208.8 720.9458984375 183.1458984375 692.65 163.8
L 676.1 172.1 Z"/>

<path fill="#A6631B" stroke="none" d="
M 724.55 147.85
L 724.6 147.85 715.15 68.9 693.2 126.9 681.9 156.7 676.1 172.1 692.65 163.8 724.55 147.85 Z"/>

<path fill="#F4B552" stroke="none" d="
M 693.2 126.9
L 715.15 68.9
Q 616.6744140625 13.05 495 13.05 307.65 13.05 175.15 145.55 166.5505859375 154.1494140625 158.5 162.95
L 201.6 206.3
Q 209.6267578125 197.3734375 218.3 188.7 332.95 74.1 495.05 74.1 605.0763671875 74.1 693.2 126.9
M 724.6 147.85
L 724.55 147.85
Q 749.0904296875 166.0404296875 771.75 188.7 855.8201171875 272.7333984375 878.25 382.3 886.4 422.1640625 886.4 465.4 886.4 556.728125 850 632.95 821.825390625 692.068359375 771.75 742.1 762.286328125 751.563671875 752.5 760.25
L 795.55 803.5
Q 805.341015625 794.708984375 814.85 785.2 931.3130859375 668.780859375 945.4 509.9 947.35 488.0314453125 947.35 465.35 947.35 278 814.85 145.55 800.1462890625 130.840625 784.75 117.75
L 724.6 147.85 Z"/>

<path fill="#DCA041" stroke="none" d="
M 201.6 206.3
L 158.5 162.95
Q 42.7 290.1638671875 42.7 465.35 42.7 507.5732421875 49.4 547
L 81.9 563.95 66.1 613.25
Q 98.4056640625 708.4556640625 175.15 785.2 188.4046875 798.4498046875 202.2 810.35 296.3697265625 891.714453125 416.05 911.35 454.2373046875 917.65 495 917.65 663.5474609375 917.65 787.65 810.5 791.620703125 807.0669921875 795.55 803.5
L 752.5 760.25
Q 643.763671875 856.7 495.05 856.7 393.27734375 856.7 310.2 811.5 260.968359375 784.7498046875 218.3 742.1 168.1548828125 691.9767578125 139.95 632.75 127.8958984375 607.4025390625 119.85 580.4
L 139.3 541.75 107.9 525.9
Q 103.7 496.528125 103.7 465.4 103.7 315.568359375 201.6 206.3 Z"/>
</g>

<g id="Layer0_10_MEMBER_1_FILL">
<path fill="#F4B552" stroke="none" d="
M 206.15 580.8
Q 206.15 553.05 189.95 534.15 177.3 519.35 158.25 516.1
L 158.25 491.75 134 491.75 134 515.2 98.85 515.2 98.85 645.95 134 645.95 134 677.35 158.25 677.35 158.25 644.45
Q 177.55 640.65 189.45 627.25 206.15 608.6 206.15 580.8
M 170.95 547.1
Q 180.55 560.3 180.55 579.45 180.55 602.95 169.55 614.8 164.4 620.35 158.25 623.3 152.05 626.25 144.85 626.65 144.1 626.7 143.35 626.7 143.2 626.7 143.1 626.7 143 626.7 142.85 626.7 142.8 626.7 142.7 626.7
L 123.1 626.7 123.1 533.8 145.5 533.8
Q 146.05 533.8 146.6 533.85 152.95 534 158.25 536.4 165.55 539.65 170.95 547.1 Z"/>
</g>

<g id="Layer0_10_MEMBER_2_FILL">
<path fill="#FFE385" stroke="none" d="
M 927.8 443.05
Q 924.5 439.75 919.85 439.75 915.2 439.75 911.9 443.05 908.6 446.35 908.6 451 908.6 455.65 911.9 458.95 915.2 462.25 919.85 462.25 924.5 462.25 927.8 458.95 931.1 455.65 931.1 451 931.1 446.35 927.8 443.05 Z"/>
</g>

<g id="Layer0_10_MEMBER_3_FILL">
<path fill="#331B0A" stroke="none" d="
M 695.55 269.4
Q 695.45 256.95 683.4 247.4 664.45 231.85 608.45 225.4 606.9 225.2 605.4 225.7 603.85 226.2 602.65 227.25 583.65 243.7 532.15 264 519.6 245.7 507.05 231.5 506.85 231.3 506.7 231.1 484.25 205.9 461.6 193.55 459.9 192.6 458 192.6 441.85 192.5 427.3 193.5 435.4 134.1 514.15 55.95 515.75 54.3 516.2 52.05 516.65 49.75 515.75 47.65 514.8 45.5 512.85 44.25 510.85 43 508.55 43.1 480.25 44.25 463.85 45.1 468.85 32.95 466.1 24.9 465.25 21.95 462.55 20.4 459.85 18.85 456.9 19.65 384.5 39.05 366.25 85.25 347.3 130.1 381.15 200.3 348.45 208.2 327.4 224.35 283.5 257.5 281.4 293.9
L 281.4 293.7 277.6 332.2 277.55 332.5
Q 277.5 332.75 277.5 333.1
L 275.4 354.15
Q 263.6 356.7 258.1 352.25 252.6 347.75 253.05 324.55 192.15 373.5 181.85 416.8 171.55 460.1 181.1 474.2 187.15 485.1 206.45 489.35 237.1 496.3 307.5 484.3 317.45 501.55 332.45 511.15 315.3 527.8 302.5 525.2 289.7 522.55 286.55 520.55 285.95 521.95 287 529.6 288.05 537.2 301.2 555.8 314.3 574.35 336.75 574.3
L 329.9 580.75
Q 328.35 582.35 328.15 584.75 328 587.05 332.45 588.7 336.95 590.35 349.3 592.65 361.6 594.95 382.95 586.65 384.75 615.45 382.55 633.35 354.65 644.65 339.5 659.7 316.45 633 276.25 623.4 200.5 603.95 147.6 719.65
L 147.55 719.8
Q 147.35 720.2 147.2 720.6 147.15 720.75 147.15 720.9 147.1 720.95 147.1 721.05 147.05 721.15 147.05 721.25 138.95 747.6 178.05 770.6 171.85 784.5 166.75 799 166.7 799.05 166.7 799.15 166.65 799.2 166.65 799.3 154.1 834.85 148.1 874.05
L 147.95 874.95
Q 147.05 875.75 146.2 876.55 146.15 876.6 146.15 876.65 140.85 881.4 135.85 886.75 134.05 888.6 133.8 891.15 133.55 893.7 134.9 895.9 200.45 1001.25 348.3 989.95 350.1 989.8 351.65 988.85 353.2 987.85 354.15 986.3 354.35 985.95 354.55 985.6
L 460.8 996.2
Q 462.85 996.35 464.75 995.5 466.65 994.6 467.8 992.9
L 498 947.65
Q 498.45 946.95 498.75 946.25 501.8 946.85 514 947 526.5 945.7 539.85 942.75 553.2 939.75 571.55 930.2 582.15 924.65 594.35 906.9
L 596.85 907.55
Q 628.8 915.7 647.4 891.1
L 650.05 883.7 762.1 476.35
Q 772.7 476.65 784.6 473.25 786.65 472.65 788.1 471.1 789.55 469.5 789.95 467.4
L 833.55 227.4
Q 834.05 224.6 832.6 222.2 831.15 219.8 828.5 218.95 825.8 218.05 823.25 219.15 820.65 220.25 819.4 222.8
L 713.7 441.9
Q 712.8 443.8 713 445.9 713.2 447.95 714.45 449.65 721.55 459.1 729.8 465.2
L 642.6 721.95
Q 632.85 706.2 621.35 695.75 650.35 679.7 647.9 653.7 647.7 650.85 645.7 648.9 643.7 646.9 640.9 646.75 638.1 646.55 635.85 648.25 620.55 659.95 614.1 657.4 607.65 651.95 607.9 623.45 608.05 595 590.25 564.05 607.7 566.55 620.45 565.25 633.15 563.95 638 561.55 649.75 555.55 655.3 550.3 672.25 532.65 675.15 522.4 678 512.15 677.65 500.8 674.7 488.75 670.2 484.5 665.3 479.85 661.35 479.4 657.4 478.95 655.95 478.8 654.45 478.6 653.95 480.35 653.4 482.05 657.05 495.9 660.7 509.75 644.2 517.75 626.3 522.8 613.05 505.25 605.8 495.65 597.8 490.95 604.5 489.65 609.75 481.95 615 474.25 604.05 455.2
L 601.7 451.1
Q 591.25 434.75 573.55 411.2 577.7 392.45 576.45 375.1 584.7 371.5 589.45 368.9 594.15 366.3 621.25 351.1 648.3 335.85 672.3 308.35 696.25 280.8 695.55 269.4
M 680.55 269.9
Q 680.45 276.85 673.9 285.6 642.5 327.35 585.85 355.05 579.35 347.5 571.85 340.2
L 571.75 338.4
Q 570.65 298.85 518.85 300.3
L 518.7 300.3
Q 518.6 300.3 518.55 300.3 518.45 300.3 518.35 300.3 400.05 306.65 315.5 399.6
L 313.4 401.95
Q 304.15 404.95 299.45 412.85 290.1 425.75 296.3 454.35 298.1 462.75 300.9 470.25 237.7 480.65 209.65 474.7 198 472.1 193.7 468.7 181.6 459.1 194.65 416.8 207.7 374.5 243.35 348.45 254.3 380.55 292 361.9 329.7 343.25 449.4 308.7 569.1 274.1 610 240.7 657.45 246.5 674.1 259.15 680.1 263.9 680.55 269.9
M 757.7 460.9
L 757.45 460.85
Q 741.4 458.35 729.25 444.15
L 808.9 279.05 776.05 460
Q 766.3 462.05 757.7 460.9
M 743.15 472.6
Q 745.15 473.35 747.2 473.95
L 650.65 825
Q 638.6 821.1 629.25 814.6 628.75 814.25 628.25 814
L 627.4 813.6 743.15 472.6
M 446.5 59.25
Q 448.75 61 451.6 60.85 463.5 60.05 490.25 58.9 418.5 134.4 412.2 193.25
L 412.05 194.9
Q 403.9 195.8 396.35 197.15
L 395.45 195.3
Q 364.2 131.4 380.15 90.9 395.6 54.5 450.7 37.1 449 42.4 444.7 49.45 443.2 51.85 443.75 54.7 444.25 57.5 446.5 59.25
M 455.95 207.6
Q 470.5 215.95 485 230.1 421.65 237.15 372.35 259.45 327.8 279.5 294.65 311.95
L 296.35 295.15
Q 296.35 295.05 296.35 294.95 299 264.55 336.45 236.3 342.3 231.95 349.1 228.25 387.4 207.45 455.95 207.6
M 372.65 367.55
Q 376.6 381.55 377.8 394.3 379.4 411.85 375.7 427.05 370.05 411.35 353 404.75 345.25 401.75 335.15 400.65 353.25 382.1 372.65 367.55
M 393.15 369.15
Q 390.65 360.55 388.2 356.7 444.75 319.9 511.65 315.5 525.65 314.25 532.2 320.7 538.5 327.1 545 333.25 557.6 345.25 570.8 356.35 566.4 358.85 563.05 359.7 559.7 360.45 552.25 363.1 544.75 365.75 543.05 363.25 542.2 362.45 538.7 359
L 535.15 355.45
Q 531.85 352.15 530.2 356.7 528.5 361.25 530.4 376.05
L 530.35 375.95
Q 530.65 377.15 530.9 378.7 532.05 385.5 541.2 395 550.6 405.9 558.55 416.2
L 581.75 452.1 586.6 459.6
Q 592.4 470.95 591.2 475 590.45 477.4 587.4 478.9 585.35 479.85 582.3 480.45 574.6 481.9 560.5 477.95 546.4 474 534.75 481.9 527.1 482.75 523.5 476.65 520.75 472 520.75 466.5 520.7 464.7 521 462.85
L 521.9 456.8
Q 522.25 452.6 514 459.75 505.75 466.9 506.7 474.45 507.6 481.95 511.45 484.85 489.05 489.75 478.75 507.75
L 479 507.25
Q 464.8 529.95 452.7 532.8 449.75 533.45 446.95 532.95 432.4 530.6 430.35 519.65 428.25 508.7 428.5 506.05 428.8 503.35 424.8 505.55 421.7 507.25 418.95 510.1 418.15 510.95 417.35 511.9 413.85 516 414.7 531.7 415.5 547.35 433.65 566.5 445.8 576.55 465.15 576.75 463.65 591.05 467.3 602.05 408.8 579.9 393.85 500.25 392.85 494 392.7 491.75 392.45 489.5 391.35 487.4 390.25 485.25 387.5 486.55
L 387.45 486.55
Q 385.8 487.4 385.15 489.35 384.5 491.25 383.15 496.9 381.75 502.5 380.6 505.25 379.4 508 377.65 509 375.9 509.95 371.8 509.9 367.7 509.8 361.45 508.25 355.15 506.65 348.7 503.35 348.55 503.25 348.4 503.2 328.3 492.8 318.3 472.65
L 318.2 472.45
Q 313.45 462.85 310.95 451.2 306.45 430.5 311.95 421.1 317.6 413.8 332.4 415.4
L 332.45 415.4
Q 344.15 416.75 352.85 422.35 368.45 432.3 374.5 455.9 375.05 458.15 376.75 460.15 378.35 462.15 380.5 459.8 382.65 457.45 385.2 450.25 387.75 443.1 392 427.7 396.2 412.3 393.15 369.15
M 417.7 302.25
Q 410.45 304.35 402.9 306.55 341.55 324.2 291.2 346.85
L 292.25 336.35
Q 326.15 297.9 374.55 275.1 427.55 250.1 497.95 243.9 507.85 255.4 517.75 269.5 476.55 284.8 417.7 302.25
M 552.75 381.3
Q 555.4 382.1 561 380.15
L 561 393.35
Q 559.65 394.9 558.8 392.9 558.6 390.7 557.95 388.2 557.25 385.7 556.25 384.4 555.25 383.1 552.75 381.3
M 576.1 371
Q 576.1 370.9 576.1 370.8 576.2 370.75 576.3 370.7
L 576.1 371
M 272.75 638
Q 295.65 643.5 312.2 655.35 343 677.35 351.6 721.3
L 351.6 721.25
Q 352.95 728.35 353.75 734.85 353.75 735.3 353.85 735.75 359.3 784.55 327.15 798.3 320.3 791.1 313.65 784.5
L 313.55 784.4
Q 313.5 784.35 313.45 784.3
L 313.35 784.2
Q 265.35 736.8 225.05 720.1 219.95 717.95 214.95 716.35 214.45 716.15 214 716.05 189.7 708.25 168.2 711.6 212.75 624.7 272.75 638
M 194.5 770.75
L 194.65 770.4
Q 203.85 750.75 215.35 732.45 253.05 746.85 298.25 790.4 295.4 794.35 292.75 798.35 281.55 815.15 273.45 833.15 268.6 832.7 263.9 832.5 251.1 823.5 237.25 816.35 212.15 803.3 183.7 796.35 188.6 783.3 194.5 770.75
M 200.5 727.9
Q 191.8 742 184.5 756.9 161.4 742.9 161.3 728.5 179.6 723.15 200.5 727.9
M 566.15 489.75
Q 559.2 487.5 552.75 486 563.05 485.35 573.4 487.35 569.85 488.2 566.15 489.75
M 540.35 496.1
Q 551.6 498 556.6 502.95 561.95 508.2 560.1 517 556.5 533.95 543.15 542.9 520.65 558.1 491 562.35 463.7 566.25 448.35 556.5 446.95 555.6 445.7 554.65
L 433.5 542.35
Q 438.2 545 444 546.85 469.95 556.4 492.1 518.85
L 496.35 513.9
Q 517.05 492.2 540.35 496.1
M 540.2 562.55
Q 557.2 551.85 560.4 546.85 568.45 559.25 574.25 571.8 586.15 597.5 588.65 623.8 592.35 662.85 605.95 669.95 614.35 676.55 628.35 670.45 624.6 675.75 617.95 680.25 614.7 682.4 610.75 684.35 587.1 695.45 563.9 672.85
L 563.9 672.8
Q 562.45 671.4 560.95 670.05 560.85 669.9 560.7 669.8
L 560.6 669.65
Q 534.3 644.55 503.7 622.85
L 503.5 622.7
Q 503.4 622.6 503.3 622.55 503.2 622.5 503.1 622.45 503 622.35 502.95 622.35 502.9 622.3 502.85 622.3 476.3 603.3 479.8 577.95 486.65 579.65 504.95 576.45 523.15 573.25 540.2 562.55
M 636.65 541.55
Q 635.1 542.55 633.55 543.55 622.1 550.8 612.65 549.75 590.6 550.55 584.4 543.65 578.15 536.75 575.7 534.7 573.15 532.65 572.6 530.45
L 574.2 527.6
Q 577.65 521.35 578.85 514 580.05 506.35 578.9 497.55 586 499.6 604.65 522 623.35 544.35 652.95 529.95 644.9 536.1 636.65 541.55
M 349.95 520.6
Q 352.85 522.4 359.15 524.85 365.4 527.3 378.95 526.1 380.7 553 383.25 568.55 366.1 578.95 353.6 577.2 357.45 573.35 359.9 564.9 362.3 556.45 360.45 556.7 358.55 556.95 351.1 558.25 343.6 559.5 330.95 557.55 318.25 555.5 311.5 540.8 328.4 545.85 349.95 520.6
M 397.8 574.8
Q 397.75 574.4 397.7 574 396.8 562.3 394.4 547.95 412.55 594.1 452.9 612.6 462.5 616.95 473.4 619.8
L 479.05 621.3
Q 484.3 627.1 491.65 632.65
L 491.5 649.5 491.1 696.9 490.9 721.55
Q 486.95 721.35 482.45 720.6 482.25 720.55 482.1 720.55 465.75 718.45 451.75 714.35 409.8 702 388.95 671.45 394.15 657.05 396.8 640.15 396.8 640 396.85 639.85
L 396.85 639.6
Q 400.8 613.3 397.8 574.8
M 348.5 671.85
L 349.5 670.85
Q 360.6 659.9 379.35 651.1 377 660.9 373.6 669.6 372.9 671.25 373.1 673 373.25 674.75 374.2 676.3 395.95 712 441.55 727 459 732.7 479.9 735.4 479.95 735.4 480.05 735.45
L 480.2 735.45
Q 490.8 737.25 499.1 736.4 499.25 736.35 499.4 736.35
L 499.7 736.3 499.75 736.3
Q 499.8 736.25 499.9 736.25 522.6 733.75 528.55 719.95 530.7 714.85 530.6 708.3
L 530.6 708.25
Q 531.5 685.55 509.1 665.8 539.75 688.15 549.35 718.55 549.2 723.2 548.7 727.5 544.15 764.5 509.95 775.35 509.85 775.35 509.75 775.4
L 509.5 775.45
Q 487.7 781.9 454.85 778.7 435.3 775.9 419.1 769.55 387.55 757.2 368.45 731.55 367.6 725.25 366.35 718.45
L 366.3 718.4
Q 361.05 691.55 348.5 671.85
M 369.6 755.75
Q 384.6 770.45 404.6 779.75 425.95 789.75 453.05 793.6 453.2 793.6 453.4 793.65 484.55 796.65 506.7 791.7 519.2 833.7 519.95 869.8 520.9 888.2 520.05 902.05 517.5 943.1 499.25 943.85 499.3 943 499.15 942.15 498.6 939.15 496.15 937.4
L 472.3 920.1 467.3 909.85 456.75 888.45
Q 455.55 886.05 453.15 884.95 450.7 883.8 448.15 884.5
L 407.8 894.95 393.95 898.5
Q 393.9 897.65 393.7 896.75 393.15 894.45 391.35 892.9 389.6 891.3 387.25 891.05 347.5 886.7 326.75 867.75 325.95 867 325.2 866.25 333.75 847.65 332.8 812.4 367.6 799.1 369.6 755.75
M 506.5 646
L 506.55 643.5
Q 529.2 660.5 549.25 679.6 553.35 688.85 557.1 697.8 542.65 669.25 509.5 647.9
L 506.5 646
M 564.05 715.4
Q 563.65 714.1 563.3 712.8 594.55 791.1 598.15 844.8 598.4 848.85 598.5 852.8 598.45 853.3 598.5 853.8 598.65 860.25 598.3 866.4 580.45 922.1 533.95 930.85 536.3 918.15 536.5 902.05 536.65 887.2 534.95 869.5 534.2 831.5 521.05 787.35 563.5 770.8 564.35 717.65 564.35 716.5 564.05 715.4
M 515.6 707.95
Q 514.85 716.4 505.95 719.7
L 506.2 684.35
Q 515.5 695.65 515.6 707.95
M 607.5 703.65
Q 623.6 716.75 636.15 741
L 610.1 817.7
Q 601.8 766.8 573.6 698.4 589.55 706.2 605.7 702.2
L 607.5 703.65
M 646.35 839.4
L 646.65 839.5 634.7 883.05
Q 622.55 897.6 602.8 893.5 607.7 885 612.9 874.7
L 613.3 867.2
Q 613.65 860.9 613.55 854.3
L 622.45 828.1
Q 633 835.1 646.35 839.4
M 305.15 838.4
Q 296.95 836.45 289.05 835.15 297.45 817.5 309.05 801.1 313.35 805.5 317.7 810.15 318.65 835.75 314.35 851.7 312.1 847.6 310.45 843.1 309.75 841.35 308.4 840.1 306.95 838.85 305.15 838.4
M 284.65 849.6
Q 291.2 850.65 297.9 852.15 299.7 856.3 301.9 860.2 255.75 862.35 221 875.15 186.95 887.6 163.85 910.3 156.95 902.1 150.8 892.9 153.5 890.2 156.3 887.65
L 156.4 887.6
Q 158.6 885.5 160.85 883.55 161.4 883.1 161.95 882.65 165.05 880 168.25 877.6
L 168.3 877.55
Q 188.6 862 211.55 854.5 229.3 848.65 248.7 847.6 266.05 846.7 284.65 849.6
M 237.4 833.5
Q 226.8 834.7 216.7 837.3 189.5 844.25 165.6 860.95 170.55 834.9 178.65 810.6 205.05 816.9 228.45 828.7 233 831 237.4 833.5
M 375.85 904.65
Q 375.75 904.8 375.7 905 356.65 923 348.75 944.75 343.45 959.2 343.05 975.3 234.45 982.35 174 921.4
L 174.05 921.35
Q 197.6 898.55 233.35 886.9 265.25 876.5 306.9 875
L 312.6 874.8
Q 314.45 876.85 316.55 878.75 337.5 898.55 375.85 904.65
M 358.3 970.9
Q 359.3544921875 958.2662109375 364.05 946.85 370.998828125 930.1580078125 385.8 916.1
L 445.95 900.55 459.7 928.4
Q 460.5 930.05 462 931.15
L 463.55 932.25 481.5 945.3 457.85 980.8 358.3 970.9
M 324.6 439.05
Q 326.05 440.2 329.95 441.45 337.3 443.8 342.15 451.4 339.6 474.65 346.15 482.5 346.3 482.7 346.5 482.9 347.15 483.6 347.9 484.2 356.5 490.8 361.3 490 362.75 489.75 363.05 489.25 363.55 488.35 360.7 486.7 356.1 484 354.2 475.45 352.25 466.85 356.25 461.75 357.8 465.45 362.95 467.4 368.1 469.3 367.5 464.95 366.7 459.5 359.3 449.55 357.85 447.6 356.2 445.95 349.25 439.1 338.45 437.15 325 434.7 323.8 436.9 323.2 437.95 324.6 439.05
M 418.15 450.2
L 415.6 446.9
Q 412.05 442.5 411 444.3 409.45 451.85 412.25 458.65 415.05 465.45 421.25 470.05 426.45 473.85 438.3 478.15 442.55 479.25 445.45 482.35 448.8 484.7 450.7 490.15 455.25 503.2 455.65 514.35 456.75 519.75 458.65 512.55 461.75 500.9 461.3 490.75 460.85 480.6 460 475.5 459.95 475.15 459.85 474.8 459.85 474.7 459.8 474.65 459.35 473.1 458.3 472.05 458 471.9 457.75 471.75 455.9 470.8 454.15 469.8 453.3 469.6 452.3 469.45 446.75 468 440.65 465.25 427.85 460.05 418.15 450.2
M 474.85 395.35
L 474.8 395.45
Q 473.7 397.65 473.1 400.3 472.4 403.4 472.4 407.05 472.4 413.85 474.85 418.65
L 474.85 418.7
Q 477.95 425 484.8 425.95 490.9 426.75 494.75 418.75 494.75 418.7 495.75 416.15 496.75 413.6 496.9 406.9 496.95 405.8 496.9 404.7 496.7 399.35 494.8 395.35
L 493.4 393.3
Q 489.65 388 483.25 388.75 476.85 389.45 474.85 395.35
M 442.4 388.55
Q 442.95 388.05 443.5 387.55 456.25 376.1 479.65 382.95 503.05 389.85 510.75 386.75 511.8 386.3 512.75 385.75 518.35 382.05 518.3 372.05 518.2 357.75 512.35 354.8 511 368.4 503.2 368.25 495.45 367.75 487.85 365 444.6 351.7 434.05 380.7 430.85 398.2 442.4 388.55 Z"/>

<path fill="#603E31" stroke="none" d="
M 385.8 916.1
Q 370.998828125 930.1580078125 364.05 946.85
L 421.9 954.85
Q 447.46640625 953.9828125 463.55 932.25
L 462 931.15
Q 460.5 930.05 459.7 928.4
L 445.95 900.55 385.8 916.1
M 417.7 302.25
Q 390.55 295.8 374.55 275.1 326.15 297.9 292.25 336.35
L 291.2 346.85
Q 341.55 324.2 402.9 306.55 410.45 304.35 417.7 302.25 Z"/>

<path fill="#42291F" stroke="none" d="
M 364.05 946.85
Q 359.3544921875 958.2662109375 358.3 970.9
L 457.85 980.8 481.5 945.3 463.55 932.25
Q 447.46640625 953.9828125 421.9 954.85
L 364.05 946.85 Z"/>

<path fill="#884E2A" stroke="none" d="
M 343.05 975.3
Q 343.45 959.2 348.75 944.75 241.3 963.9 233.35 886.9 197.6 898.55 174.05 921.35
L 174 921.4
Q 234.45 982.35 343.05 975.3
M 216.7 837.3
L 228.45 828.7
Q 205.05 816.9 178.65 810.6 170.55 834.9 165.6 860.95 189.5 844.25 216.7 837.3
M 168.3 877.55
L 168.25 877.6
Q 165.05 880 161.95 882.65
L 161.8 883.7 160.85 883.55
Q 158.6 885.5 156.4 887.6
L 156.3 887.65
Q 153.5 890.2 150.8 892.9 156.95 902.1 163.85 910.3 186.95 887.6 221 875.15
L 211.55 854.5
Q 188.6 862 168.3 877.55
M 598.3 866.4
Q 598.65 860.25 598.5 853.8 598.45 853.3 598.5 852.8 598.4 848.85 598.15 844.8 577.9 915.8 536.5 902.05 536.3 918.15 533.95 930.85 580.45 922.1 598.3 866.4
M 506.55 643.5
L 506.5 646 509.5 647.9
Q 542.65 669.25 557.1 697.8 553.35 688.85 549.25 679.6 529.2 660.5 506.55 643.5
M 499.15 942.15
Q 499.3 943 499.25 943.85 517.5 943.1 520.05 902.05 490.45 926.4 467.3 909.85
L 472.3 920.1 496.15 937.4
Q 498.6 939.15 499.15 942.15
M 404.6 779.75
Q 384.6 770.45 369.6 755.75 367.6 799.1 332.8 812.4 333.75 847.65 325.2 866.25 325.95 867 326.75 867.75 347.5 886.7 387.25 891.05 389.6 891.3 391.35 892.9 393.15 894.45 393.7 896.75 393.9 897.65 393.95 898.5
L 407.8 894.95
Q 387.45 832.25 404.6 779.75
M 528.55 719.95
Q 535.85 731.15 548.7 727.5 549.2 723.2 549.35 718.55 539.75 688.15 509.1 665.8 531.5 685.55 530.6 708.25
L 530.6 708.3
Q 530.7 714.85 528.55 719.95
M 349.5 670.85
L 348.5 671.85
Q 361.05 691.55 366.3 718.4
L 366.35 718.45
Q 367.6 725.25 368.45 731.55 387.55 757.2 419.1 769.55 420.45 743.65 441.55 727 395.95 712 374.2 676.3 373.25 674.75 373.1 673 372.9 671.25 373.6 669.6 377 660.9 379.35 651.1 360.6 659.9 349.5 670.85
M 184.5 756.9
Q 191.8 742 200.5 727.9 179.6 723.15 161.3 728.5 161.4 742.9 184.5 756.9
M 194.65 770.4
L 194.5 770.75
Q 188.6 783.3 183.7 796.35 212.15 803.3 237.25 816.35 260.05 790.95 292.75 798.35 295.4 794.35 298.25 790.4 253.05 746.85 215.35 732.45 203.85 750.75 194.65 770.4
M 312.2 655.35
Q 295.65 643.5 272.75 638 212.75 624.7 168.2 711.6 189.7 708.25 214 716.05 214.45 716.15 214.95 716.35 219.95 717.95 225.05 720.1 245.35 671.95 312.2 655.35
M 673.9 285.6
Q 680.45 276.85 680.55 269.9 680.1 263.9 674.1 259.15 657.45 246.5 610 240.7 569.1 274.1 449.4 308.7 329.7 343.25 292 361.9 254.3 380.55 243.35 348.45 207.7 374.5 194.65 416.8 181.6 459.1 193.7 468.7 198 472.1 209.65 474.7 237.7 480.65 300.9 470.25 298.1 462.75 296.3 454.35 290.1 425.75 299.45 412.85 304.15 404.95 313.4 401.95
L 315.5 399.6
Q 400.05 306.65 518.35 300.3 518.45 300.3 518.55 300.3 518.6 300.3 518.7 300.3
L 518.85 300.3
Q 570.65 298.85 571.75 338.4
L 571.85 340.2
Q 579.35 347.5 585.85 355.05 642.5 327.35 673.9 285.6 Z"/>

<path fill="#D57539" stroke="none" d="
M 375.7 905
Q 375.75 904.8 375.85 904.65 337.5 898.55 316.55 878.75 314.45 876.85 312.6 874.8
L 306.9 875
Q 265.25 876.5 233.35 886.9 241.3 963.9 348.75 944.75 356.65 923 375.7 905
M 228.45 828.7
L 216.7 837.3
Q 226.8 834.7 237.4 833.5 233 831 228.45 828.7
M 297.9 852.15
Q 291.2 850.65 284.65 849.6 266.05 846.7 248.7 847.6 229.3 848.65 211.55 854.5
L 221 875.15
Q 255.75 862.35 301.9 860.2 299.7 856.3 297.9 852.15
M 636.15 741
Q 623.6 716.75 607.5 703.65
L 605.7 702.2
Q 589.55 706.2 573.6 698.4 601.8 766.8 610.1 817.7
L 636.15 741
M 563.3 712.8
Q 563.65 714.1 564.05 715.4 564.35 716.5 564.35 717.65 563.5 770.8 521.05 787.35 534.2 831.5 534.95 869.5 536.65 887.2 536.5 902.05 577.9 915.8 598.15 844.8 594.55 791.1 563.3 712.8
M 520.05 902.05
Q 520.9 888.2 519.95 869.8 519.2 833.7 506.7 791.7 484.55 796.65 453.4 793.65 453.2 793.6 453.05 793.6 425.95 789.75 404.6 779.75 387.45 832.25 407.8 894.95
L 448.15 884.5
Q 450.7 883.8 453.15 884.95 455.55 886.05 456.75 888.45
L 467.3 909.85
Q 490.45 926.4 520.05 902.05
M 480.2 735.45
L 480.05 735.45
Q 479.95 735.4 479.9 735.4 459 732.7 441.55 727 420.45 743.65 419.1 769.55 435.3 775.9 454.85 778.7 487.7 781.9 509.5 775.45
L 509.75 775.4
Q 509.85 775.35 509.95 775.35 544.15 764.5 548.7 727.5 535.85 731.15 528.55 719.95 522.6 733.75 499.9 736.25 499.8 736.25 499.75 736.3
L 499.7 736.3 499.4 736.35
Q 499.25 736.35 499.1 736.4 490.8 737.25 480.2 735.45
M 263.9 832.5
Q 268.6 832.7 273.45 833.15 281.55 815.15 292.75 798.35 260.05 790.95 237.25 816.35 251.1 823.5 263.9 832.5
M 313.35 784.2
L 313.45 784.3
Q 313.5 784.35 313.55 784.4
L 313.65 784.5
Q 320.3 791.1 327.15 798.3 359.3 784.55 353.85 735.75 353.75 735.3 353.75 734.85 352.95 728.35 351.6 721.25
L 351.6 721.3
Q 343 677.35 312.2 655.35 245.35 671.95 225.05 720.1 265.35 736.8 313.35 784.2 Z"/>

<path fill="#000000" fill-opacity="0.30980392156862746" stroke="none" d="
M 160.85 883.55
L 161.8 883.7 161.95 882.65
Q 161.4 883.1 160.85 883.55 Z"/>

<path fill="#4E301D" stroke="none" d="
M 289.05 835.15
Q 296.95 836.45 305.15 838.4 306.95 838.85 308.4 840.1 309.75 841.35 310.45 843.1 312.1 847.6 314.35 851.7 318.65 835.75 317.7 810.15 313.35 805.5 309.05 801.1 297.45 817.5 289.05 835.15
M 505.95 719.7
Q 514.85 716.4 515.6 707.95 515.5 695.65 506.2 684.35
L 505.95 719.7 Z"/>

<path fill="#C94D2F" stroke="none" d="
M 646.65 839.5
L 646.35 839.4
Q 633 835.1 622.45 828.1
L 613.55 854.3
Q 613.65 860.9 613.3 867.2
L 612.9 874.7
Q 607.7 885 602.8 893.5 622.55 897.6 634.7 883.05
L 646.65 839.5 Z"/>

<path fill="#FFD89C" stroke="none" d="
M 451.75 714.35
Q 465.75 718.45 482.1 720.55 482.25 720.55 482.45 720.6 486.95 721.35 490.9 721.55
L 491.1 696.9
Q 458 677.9 434.45 641.95 431.65 677.95 451.75 714.35
M 446.95 532.95
Q 449.75 533.45 452.7 532.8 449.75 501.2 414 479.45 412.45 493.95 418.95 510.1 421.7 507.25 424.8 505.55 428.8 503.35 428.5 506.05 428.25 508.7 430.35 519.65 432.4 530.6 446.95 532.95
M 318.2 472.45
L 318.3 472.65
Q 328.3 492.8 348.4 503.2 348.55 503.25 348.7 503.35 355.15 506.65 361.45 508.25 367.7 509.8 371.8 509.9 375.9 509.95 377.65 509 379.4 508 380.6 505.25 381.75 502.5 383.15 496.9 384.5 491.25 385.15 489.35 385.8 487.4 387.45 486.55
L 387.5 486.55
Q 374.5 474.95 363.05 489.25 362.75 489.75 361.3 490 356.5 490.8 347.9 484.2 347.15 483.6 346.5 482.9 346.3 482.7 346.15 482.5 318.95 455.35 324.6 439.05 323.2 437.95 323.8 436.9 325 434.7 338.45 437.15 349.25 439.1 356.2 445.95 361.1 438 352.85 422.35 344.15 416.75 332.45 415.4
L 332.4 415.4
Q 317.6 413.8 311.95 421.1 306.45 430.5 310.95 451.2 313.45 462.85 318.2 472.45
M 444.75 347.4
Q 413.65 362.15 410.55 394 407.4 425.8 421.2 442 431.6 454.15 447.2 462.05 452.6 464.8 457.75 471.75 458 471.9 458.3 472.05 459.35 473.1 459.8 474.65 459.85 474.7 459.85 474.8 459.95 475.15 460 475.5 460.85 480.6 461.3 490.75 461.75 500.9 458.65 512.55 456.75 519.75 455.65 514.35
L 452.7 532.8
Q 464.8 529.95 479 507.25
L 478.75 507.75
Q 489.05 489.75 511.45 484.85 507.6 481.95 506.7 474.45 505.75 466.9 514 459.75 522.25 452.6 521.9 456.8
L 521 462.85
Q 520.7 464.7 520.75 466.5 525.45 473.75 533.35 471.9 541.2 470.05 556.65 456.85 572.1 443.65 581.75 452.1
L 558.55 416.2
Q 550.6 405.9 541.2 395 532.05 385.5 530.9 378.7 530.65 377.15 530.35 375.95
L 530.4 376.05
Q 528.5 361.25 530.2 356.7 531.85 352.15 535.15 355.45
L 538.7 359
Q 542.2 362.45 543.05 363.25 544.75 365.75 552.25 363.1 559.7 360.45 563.05 359.7 566.4 358.85 570.8 356.35 557.6 345.25 545 333.25 475.85 332.65 444.75 347.4
M 442.4 388.55
Q 430.85 398.2 434.05 380.7 444.6 351.7 487.85 365 495.45 367.75 503.2 368.25 511 368.4 512.35 354.8 518.2 357.75 518.3 372.05 518.35 382.05 512.75 385.75 521.55 401.45 496.9 404.7 496.95 405.8 496.9 406.9 496.75 413.6 495.75 416.15 494.75 418.7 494.75 418.75 490.9 426.75 484.8 425.95 477.95 425 474.85 418.7
L 474.85 418.65
Q 472.4 413.85 472.4 407.05 472.4 403.4 473.1 400.3 458.8 390.95 442.4 388.55
M 471.3 445.2
Q 462.2 442.9 463.5 438.9 481.55 442 494.55 429.05 491.6 450.3 471.3 445.2 Z"/>

<path fill="#A76840" stroke="none" d="
M 479.05 621.3
L 473.4 619.8
Q 462.5 616.95 452.9 612.6 465.7 640 491.5 649.5
L 491.65 632.65
Q 484.3 627.1 479.05 621.3
M 552.75 486
Q 559.2 487.5 566.15 489.75 569.85 488.2 573.4 487.35 563.05 485.35 552.75 486 Z"/>

<path fill="#DB9060" stroke="none" d="
M 397.7 574
Q 397.75 574.4 397.8 574.8 400.8 613.3 396.85 639.6
L 396.85 639.85
Q 396.8 640 396.8 640.15 394.15 657.05 388.95 671.45 409.8 702 451.75 714.35 431.65 677.95 434.45 641.95 458 677.9 491.1 696.9
L 491.5 649.5
Q 465.7 640 452.9 612.6 412.55 594.1 394.4 547.95 396.8 562.3 397.7 574
M 561 380.15
Q 555.4 382.1 552.75 381.3 555.25 383.1 556.25 384.4 557.25 385.7 557.95 388.2 558.6 390.7 558.8 392.9 559.65 394.9 561 393.35
L 561 380.15
M 329.95 441.45
Q 326.05 440.2 324.6 439.05 318.95 455.35 346.15 482.5 339.6 474.65 342.15 451.4 337.3 443.8 329.95 441.45
M 463.5 438.9
Q 462.2 442.9 471.3 445.2 491.6 450.3 494.55 429.05 481.55 442 463.5 438.9
M 443.5 387.55
Q 442.95 388.05 442.4 388.55 458.8 390.95 473.1 400.3 473.7 397.65 474.8 395.45
L 474.85 395.35
Q 476.85 389.45 483.25 388.75 489.65 388 493.4 393.3
L 494.8 395.35
Q 496.7 399.35 496.9 404.7 521.55 401.45 512.75 385.75 511.8 386.3 510.75 386.75 503.05 389.85 479.65 382.95 456.25 376.1 443.5 387.55
M 388.2 356.7
Q 390.65 360.55 393.15 369.15 396.2 412.3 392 427.7 387.75 443.1 385.2 450.25 382.65 457.45 380.5 459.8 378.35 462.15 376.75 460.15 375.05 458.15 374.5 455.9 368.45 432.3 352.85 422.35 361.1 438 356.2 445.95 357.85 447.6 359.3 449.55 366.7 459.5 367.5 464.95 368.1 469.3 362.95 467.4 357.8 465.45 356.25 461.75 352.25 466.85 354.2 475.45 356.1 484 360.7 486.7 363.55 488.35 363.05 489.25 374.5 474.95 387.5 486.55 390.25 485.25 391.35 487.4 392.45 489.5 392.7 491.75 392.85 494 393.85 500.25 408.8 579.9 467.3 602.05 463.65 591.05 465.15 576.75 445.8 576.55 433.65 566.5 415.5 547.35 414.7 531.7 413.85 516 417.35 511.9 418.15 510.95 418.95 510.1 412.45 493.95 414 479.45 449.75 501.2 452.7 532.8
L 455.65 514.35
Q 455.25 503.2 450.7 490.15 448.8 484.7 445.45 482.35 442.55 479.25 438.3 478.15 426.45 473.85 421.25 470.05 415.05 465.45 412.25 458.65 409.45 451.85 411 444.3 412.05 442.5 415.6 446.9
L 418.15 450.2
Q 427.85 460.05 440.65 465.25 446.75 468 452.3 469.45 453.3 469.6 454.15 469.8 455.9 470.8 457.75 471.75 452.6 464.8 447.2 462.05 431.6 454.15 421.2 442 407.4 425.8 410.55 394 413.65 362.15 444.75 347.4 475.85 332.65 545 333.25 538.5 327.1 532.2 320.7 525.65 314.25 511.65 315.5 444.75 319.9 388.2 356.7 Z"/>

<path fill="#BE8848" stroke="none" d="
M 359.15 524.85
Q 352.85 522.4 349.95 520.6 328.4 545.85 311.5 540.8 318.25 555.5 330.95 557.55 343.6 559.5 351.1 558.25 358.55 556.95 360.45 556.7 362.3 556.45 359.9 564.9 357.45 573.35 353.6 577.2 366.1 578.95 383.25 568.55 380.7 553 378.95 526.1 365.4 527.3 359.15 524.85
M 633.55 543.55
Q 635.1 542.55 636.65 541.55 583.7 538.7 578.85 514 577.65 521.35 574.2 527.6
L 572.6 530.45
Q 573.15 532.65 575.7 534.7 578.15 536.75 584.4 543.65 590.6 550.55 612.65 549.75 622.1 550.8 633.55 543.55
M 560.4 546.85
Q 557.2 551.85 540.2 562.55 523.15 573.25 504.95 576.45 486.65 579.65 479.8 577.95 476.3 603.3 502.85 622.3 502.9 622.3 502.95 622.35 503 622.35 503.1 622.45 503.2 622.5 503.3 622.55 503.4 622.6 503.5 622.7
L 503.7 622.85
Q 534.3 644.55 560.6 669.65
L 560.7 669.8
Q 560.85 669.9 560.95 670.05 562.45 671.4 563.9 672.8
L 563.9 672.85
Q 587.1 695.45 610.75 684.35 614.7 682.4 617.95 680.25 585.1 676.5 578.8 640.1 570.45 615.35 555.9 596.05 550.05 611.35 564.2 650.2 551.15 633.35 532.7 620.1 518.4 611.65 513.6 597.15 524.6 588.1 541.5 572.75 558.35 557.4 574.25 571.8 568.45 559.25 560.4 546.85
M 543.15 542.9
Q 556.5 533.95 560.1 517 561.95 508.2 556.6 502.95 493.7 569.35 448.35 556.5 463.7 566.25 491 562.35 520.65 558.1 543.15 542.9
M 377.8 394.3
Q 376.6 381.55 372.65 367.55 353.25 382.1 335.15 400.65 345.25 401.75 353 404.75 362.3 395.25 377.8 394.3 Z"/>

<path fill="#DBB360" stroke="none" d="
M 604.65 522
Q 586 499.6 578.9 497.55 580.05 506.35 578.85 514 583.7 538.7 636.65 541.55 644.9 536.1 652.95 529.95 623.35 544.35 604.65 522
M 574.25 571.8
Q 558.35 557.4 541.5 572.75 524.6 588.1 513.6 597.15 518.4 611.65 532.7 620.1 551.15 633.35 564.2 650.2 550.05 611.35 555.9 596.05 570.45 615.35 578.8 640.1 585.1 676.5 617.95 680.25 624.6 675.75 628.35 670.45 614.35 676.55 605.95 669.95 592.35 662.85 588.65 623.8 586.15 597.5 574.25 571.8
M 556.6 502.95
Q 551.6 498 540.35 496.1 517.05 492.2 496.35 513.9
L 492.1 518.85
Q 469.95 556.4 444 546.85 438.2 545 433.5 542.35
L 445.7 554.65
Q 446.95 555.6 448.35 556.5 493.7 569.35 556.6 502.95
M 353 404.75
Q 370.05 411.35 375.7 427.05 379.4 411.85 377.8 394.3 362.3 395.25 353 404.75 Z"/>

<path fill="#7F4F3C" stroke="none" d="
M 374.55 275.1
Q 390.55 295.8 417.7 302.25 476.55 284.8 517.75 269.5 507.85 255.4 497.95 243.9 427.55 250.1 374.55 275.1 Z"/>

<path fill="#DB8060" stroke="none" d="
M 582.3 480.45
Q 585.35 479.85 587.4 478.9 590.45 477.4 591.2 475 592.4 470.95 586.6 459.6
L 581.75 452.1
Q 572.1 443.65 556.65 456.85 541.2 470.05 533.35 471.9 525.45 473.75 520.75 466.5 520.75 472 523.5 476.65 527.1 482.75 534.75 481.9 546.4 474 560.5 477.95 574.6 481.9 582.3 480.45 Z"/>

<path fill="#9E4D2D" stroke="none" d="
M 349.1 228.25
Q 342.3 231.95 336.45 236.3 299 264.55 296.35 294.95 296.35 295.05 296.35 295.15
L 294.65 311.95
Q 327.8 279.5 372.35 259.45 343.9 248 349.1 228.25 Z"/>

<path fill="#AF5E3E" stroke="none" d="
M 485 230.1
Q 470.5 215.95 455.95 207.6 387.4 207.45 349.1 228.25 343.9 248 372.35 259.45 421.65 237.15 485 230.1 Z"/>

<path fill="#D75A50" stroke="none" d="
M 451.6 60.85
Q 448.75 61 446.5 59.25 444.25 57.5 443.75 54.7 443.2 51.85 444.7 49.45 449 42.4 450.7 37.1 395.6 54.5 380.15 90.9 364.2 131.4 395.45 195.3
L 396.35 197.15
Q 403.9 195.8 412.05 194.9
L 412.2 193.25
Q 418.5 134.4 490.25 58.9 463.5 60.05 451.6 60.85 Z"/>

<path fill="#8F6144" stroke="none" d="
M 747.2 473.95
Q 745.15 473.35 743.15 472.6
L 627.4 813.6 628.25 814
Q 628.75 814.25 629.25 814.6 638.6 821.1 650.65 825
L 747.2 473.95 Z"/>

<path fill="#E1A37D" stroke="none" d="
M 757.45 460.85
L 757.7 460.9
Q 766.3 462.05 776.05 460
L 808.9 279.05 729.25 444.15
Q 741.4 458.35 757.45 460.85 Z"/>
</g>

<g id="Layer0_10_MEMBER_4_MEMBER_0_FILL">
<path fill="#FFE385" stroke="none" d="
M 919.85 439.75
Q 915.2 439.75 911.9 443.05 908.6 446.35 908.6 451 908.6 455.65 911.9 458.95 915.2 462.25 919.85 462.25 924.5 462.25 927.8 458.95 931.1 455.65 931.1 451 931.1 446.35 927.8 443.05 924.5 439.75 919.85 439.75 Z"/>
</g>

<g id="Layer0_10_MEMBER_4_MEMBER_1_FILL">
<path fill="#FFE385" stroke="none" d="
M 927.8 443.05
Q 924.5 439.75 919.85 439.75 915.2 439.75 911.9 443.05 908.6 446.35 908.6 451 908.6 455.65 911.9 458.95 915.2 462.25 919.85 462.25 924.5 462.25 927.8 458.95 931.1 455.65 931.1 451 931.1 446.35 927.8 443.05 Z"/>
</g>

<g id="Layer0_10_MEMBER_5_MEMBER_0_FILL">
<path fill="#FFE385" stroke="none" d="
M 927.8 443.05
Q 924.5 439.75 919.85 439.75 915.2 439.75 911.9 443.05 908.6 446.35 908.6 451 908.6 455.65 911.9 458.95 915.2 462.25 919.85 462.25 924.5 462.25 927.8 458.95 931.1 455.65 931.1 451 931.1 446.35 927.8 443.05 Z"/>
</g>

<g id="Layer0_10_MEMBER_5_MEMBER_1_FILL">
<path fill="#FFE385" stroke="none" d="
M 927.8 443.05
Q 924.5 439.75 919.85 439.75 915.2 439.75 911.9 443.05 908.6 446.35 908.6 451 908.6 455.65 911.9 458.95 915.2 462.25 919.85 462.25 924.5 462.25 927.8 458.95 931.1 455.65 931.1 451 931.1 446.35 927.8 443.05 Z"/>
</g>

<path id="Layer0_10_MEMBER_0_1_STROKES" stroke="#331B0A" stroke-width="15" stroke-linejoin="round" stroke-linecap="square" fill="none" d="
M 724.6 147.85
L 715.175 68.9 693.225 126.9
M 795.55 803.525
Q 805.341015625 794.708984375 814.85 785.2 931.3130859375 668.780859375 945.4 509.9 947.35 488.0314453125 947.35 465.35 947.35 278 814.85 145.55 800.1462890625 130.840625 784.775 117.775
L 724.6 147.85
M 158.5 162.975
Q 166.5505859375 154.1494140625 175.15 145.55 307.65 13.05 495 13.05 616.6744140625 13.05 715.175 68.9
M 158.5 162.975
Q 42.7 290.1638671875 42.7 465.35 42.7 507.5732421875 49.425 547
L 81.9 563.95 66.125 613.25
Q 98.4056640625 708.4556640625 175.15 785.2 188.4046875 798.4498046875 202.2 810.375 296.3697265625 891.714453125 416.075 911.375 454.2373046875 917.65 495 917.65 663.5474609375 917.65 787.65 810.5 791.620703125 807.0669921875 795.55 803.525"/>

<path id="Layer0_10_MEMBER_0_2_STROKES" stroke="#87521A" stroke-width="15" stroke-linejoin="round" stroke-linecap="square" fill="none" d="
M 724.575 147.85
L 724.6 147.85
M 693.225 126.9
L 681.925 156.725 676.1 172.1 692.675 163.8 724.575 147.85
Q 749.0904296875 166.0404296875 771.75 188.7 855.8201171875 272.7333984375 878.25 382.3 886.4 422.1640625 886.4 465.4 886.4 556.728125 850.025 632.95 821.825390625 692.068359375 771.75 742.1 762.286328125 751.563671875 752.5 760.25
M 201.6 206.325
Q 209.6267578125 197.3734375 218.3 188.7 332.95 74.1 495.05 74.1 605.0763671875 74.1 693.225 126.9"/>

<path id="Layer0_10_MEMBER_0_3_STROKES" stroke="#A6621C" stroke-width="15" stroke-linejoin="round" stroke-linecap="square" fill="none" d="
M 201.6 206.325
Q 103.7 315.568359375 103.7 465.4 103.7 496.528125 107.925 525.9
L 139.3 541.75 119.85 580.4
Q 127.8958984375 607.4025390625 139.95 632.75 168.1548828125 691.9767578125 218.3 742.1 260.968359375 784.7498046875 310.2 811.525 393.27734375 856.7 495.05 856.7 643.763671875 856.7 752.5 760.25"/>

<path id="Layer0_10_MEMBER_1_1_STROKES" stroke="#D18029" stroke-width="15" stroke-linejoin="round" stroke-linecap="square" fill="none" d="
M 674.4023788452148 537.9966354370117
L 719.4381759643554 537.9966354370117
Q 719.6679504394531 537.9966354370117 719.7828376770019 537.9966354370117 720.1274993896484 537.9966354370117 720.357273864746 537.9966354370117 720.5870483398437 537.9966354370117 720.9317100524902 537.9966354370117 722.6550186157226 537.9966354370117 724.378327178955 537.8817481994629 740.9220893859863 536.9626502990723 755.168106842041 530.1843032836914 769.2992370605468 523.4059562683105 781.1326225280761 510.6534729003906 806.4078147888183 483.42519760131836 806.4078147888183 429.42819595336914 806.4078147888183 385.42638397216797 784.3494651794433 355.09615325927734 771.9416435241699 337.97795486450195 755.168106842041 330.5102844238281 742.9900596618652 324.9956970214844 728.399380493164 324.6510353088379 727.1356208801269 324.53614807128906 725.8718612670898 324.53614807128906
L 674.4023788452148 324.53614807128906 674.4023788452148 537.9966354370117 Z
M 618.6820686340332 582.2282218933105
L 618.6820686340332 281.798095703125 699.4477966308593 281.798095703125 699.4477966308593 227.9159812927246 755.168106842041 227.9159812927246 755.168106842041 283.8660659790039
Q 798.9401443481445 291.33373641967773 828.006615447998 325.34035873413086 865.2300804138183 368.7677345275879 865.2300804138183 432.5301513671875 865.2300804138183 496.40745544433594 826.8577430725097 539.2603950500488 799.5145805358886 570.0501747131348 755.168106842041 578.7816047668457
L 755.168106842041 654.3774070739746 699.4477966308593 654.3774070739746 699.4477966308593 582.2282218933105 618.6820686340332 582.2282218933105 Z"/>
</defs>

<g transform="matrix( 1, 0, 0, 1, -1080.2,153.65) ">
<use xlink:href="#Layer0_0_FILL"/>
</g>

<g transform="matrix( 1, 0, 0, 1, -1511.45,175.05) ">
<use xlink:href="#Layer0_1_FILL"/>
</g>

<g transform="matrix( 1, 0, 0, 1, -1485.85,153.65) ">
<use xlink:href="#Layer0_2_FILL"/>
</g>

<g transform="matrix( 1, 0, 0, 1, -1080.2,153.65) ">
<use xlink:href="#Layer0_3_FILL"/>
</g>

<g transform="matrix( 1, 0, 0, 1, -1511.5,153.65) ">
<use xlink:href="#Layer0_4_FILL"/>
</g>

<g transform="matrix( 0.99359130859375, 0.112884521484375, -0.112884521484375, 0.99359130859375, -1438.25,17.7) ">
<use xlink:href="#Layer0_5_FILL"/>
</g>

<g transform="matrix( 1, 0, 0, 1, -1086.6,99) ">
<use xlink:href="#Layer0_6_FILL"/>
</g>

<g transform="matrix( -1.6270751953125, 0, 0, 1.6270751953125, 155.55,31.2) ">
<use xlink:href="#Layer0_7_FILL"/>
</g>

<g transform="matrix( 1, 0, 0, 1, -1080.2,153.65) ">
<use xlink:href="#Layer0_8_FILL"/>
</g>

<g transform="matrix( 1, 0, 0, 1, -1080.2,99) ">
<use xlink:href="#Layer0_9_FILL"/>
</g>

<g transform="matrix( 1, 0, 0, 1, 0,0) ">
<use xlink:href="#Layer0_10_MEMBER_0_FILL"/>

<use xlink:href="#Layer0_10_MEMBER_0_1_STROKES"/>

<use xlink:href="#Layer0_10_MEMBER_0_2_STROKES"/>

<use xlink:href="#Layer0_10_MEMBER_0_3_STROKES"/>
</g>

<g transform="matrix( 2.2977447509765625, 0, 0, 2.2977447509765625, 391.55,-902) ">
<use xlink:href="#Layer0_10_MEMBER_1_FILL"/>

<use xlink:href="#Layer0_10_MEMBER_1_1_STROKES" transform="matrix( 0.4351959228515625, 0, 0, 0.4351959228515625, -170.4,392.55) "/>
</g>

<g transform="matrix( 1, 0, 0, 1, -424.75,-407.3) ">
<use xlink:href="#Layer0_10_MEMBER_2_FILL"/>
</g>

<g transform="matrix( 1, 0, 0, 1, 0,0) ">
<use xlink:href="#Layer0_10_MEMBER_3_FILL"/>
</g>

<g transform="matrix( 1, 0, 0, 1, -4,14.35) ">
<use xlink:href="#Layer0_10_MEMBER_4_MEMBER_0_FILL"/>
</g>

<g transform="matrix( 1, 0, 0, 1, -846.7,14.35) ">
<use xlink:href="#Layer0_10_MEMBER_4_MEMBER_1_FILL"/>
</g>

<g transform="matrix( 0.7071075439453125, 0.70709228515625, -0.70709228515625, 0.7071075439453125, 460.9,-206) ">
<use xlink:href="#Layer0_10_MEMBER_5_MEMBER_0_FILL"/>
</g>

<g transform="matrix( 0.7071075439453125, 0.70709228515625, -0.70709228515625, 0.7071075439453125, -134.95,-801.85) ">
<use xlink:href="#Layer0_10_MEMBER_5_MEMBER_1_FILL"/>
</g>
</svg>
